<?xml version="1.0" encoding="UTF-8"?>
<svg id="Layer_1" xmlns="http://www.w3.org/2000/svg" version="1.1" viewBox="0 0 128 128">
  <!-- Generator: Adobe Illustrator 29.1.0, SVG Export Plug-In . SVG Version: 2.1.0 Build 142)  -->
  <defs>
    <style>
      .st0 {
        fill: #fff;
      }

      .st1 {
        fill: #e6e7e7;
      }

      .st2 {
        fill: #418fde;
      }
    </style>
  </defs>
  <path class="st0" d="M64,14c27.6,0,50,22.4,50,50s-22.4,50-50,50S14,91.6,14,64,36.4,14,64,14"/>
  <path class="st1" d="M64,14h-.6c-1.5,0-3.1.1-4.6.3-.3,0-.7.1-1,.1,24.6,3.1,43.7,24.1,43.7,49.6s-19.1,46.5-43.7,49.6c.5,0,1,0,1.6.2,1.2,0,2.5.2,3.7.2h.9c27.6,0,50-22.4,50-50S91.6,14,64,14"/>
  <path class="st2" d="M64,117c-29.2,0-53-23.8-53-53S34.8,11,64,11s53,23.8,53,53-23.8,53-53,53ZM64,17c-25.9,0-47,21.1-47,47s21.1,47,47,47,47-21.1,47-47-21.1-47-47-47Z"/>
  <path class="st2" d="M64,32.7c-1.7,0-3,1.3-3,3s1.3,3,3,3,3-1.3,3-3-1.3-3-3-3ZM64,91c-1.7,0-3-1.3-3-3v-35.7c0-1.7,1.3-3,3-3s3,1.3,3,3v35.7c0,1.7-1.3,3-3,3Z"/>
</svg>